<svg width="224" height="26" viewBox="0 0 224 26" fill="none" xmlns="http://www.w3.org/2000/svg">
<path d="M10.6311 0H17.8538C18.6526 0 19.1518 0.347509 19.3515 1.04253L26.7739 21.1981C26.7961 21.2612 26.8072 21.3665 26.8072 21.514C26.8072 21.6403 26.7295 21.7772 26.5742 21.9247C26.441 22.051 26.2746 22.1142 26.0749 22.1142H19.9174C19.2517 22.1142 18.819 21.851 18.6193 21.3244L17.8205 19.2394H10.6644L8.56752 22.1142C9.2332 22.1142 8.36782 22.6407 8.56752 22.1142H2.40998C2.21028 22.1142 2.03276 22.051 1.87744 21.9247C1.7443 21.7772 1.67773 21.6403 1.67773 21.514C1.67773 21.3665 1.68883 21.2612 1.71102 21.1981L9.13335 1.04253C9.33306 0.347509 9.83232 0 10.6311 0Z" fill="white"/>
<path d="M30.7732 15.3536H34.1016C35.211 15.3536 35.8212 15.2062 35.9322 14.9113L28.177 0.979344C28.1548 0.916161 28.1437 0.842446 28.1437 0.758201C28.2325 0.252734 28.5098 0 28.9758 0H35.9322C36.3982 0 36.7532 0.252734 36.9973 0.758201L40.0927 6.98177L42.5557 0.758201C42.7776 0.252734 43.1548 0 43.6873 0H50.5771C50.7768 0 50.9544 0.0737144 51.1097 0.221143C51.265 0.34751 51.3427 0.494938 51.3427 0.663427C51.3427 0.831917 51.3316 0.937223 51.3094 0.979344L44.6859 15.6695C43.532 18.239 42.3116 19.9554 41.0246 20.819C39.7598 21.6825 37.7295 22.1142 34.9337 22.1142H30.7732C30.5291 22.1142 30.3183 22.03 30.1408 21.8615C29.9632 21.693 29.8745 21.4929 29.8745 21.2612V16.2066C29.8745 15.9749 29.9632 15.7748 30.1408 15.6063C30.3183 15.4378 30.5291 15.3536 30.7732 15.3536Z" fill="white"/>
<path d="M57.4183 0H75.6579C75.902 0 76.1128 0.0842448 76.2903 0.252734C76.4678 0.421224 76.5566 0.621305 76.5566 0.852977V15.164H77.9878C78.2319 15.164 78.4427 15.2483 78.6202 15.4168C78.7977 15.5853 78.8865 15.7853 78.8865 16.017V25.147C78.8865 25.3787 78.7977 25.5788 78.6202 25.7473C78.4427 25.9158 78.2319 26 77.9878 26H71.4641C71.2201 26 71.0093 25.9158 70.8317 25.7473C70.6542 25.5788 70.5655 25.3787 70.5655 25.147V22.1142H61.5122V25.147C61.5122 25.3787 61.4235 25.5788 61.246 25.7473C61.0684 25.9158 60.8576 26 60.6136 26H54.0899C53.8458 26 53.635 25.9158 53.4575 25.7473C53.28 25.5998 53.1912 25.3998 53.1912 25.147V16.017C53.1912 15.7853 53.28 15.5853 53.4575 15.4168C53.635 15.2483 53.8458 15.164 54.0899 15.164H54.223C54.8887 15.164 55.4324 14.9534 55.854 14.5322C56.2977 14.111 56.5196 13.5107 56.5196 12.7315V0.852977C56.5196 0.621305 56.6084 0.421224 56.7859 0.252734C56.9634 0.0842448 57.1742 0 57.4183 0ZM68.2356 6.95018H64.8406V12.7631C64.8406 13.9425 64.7408 14.7428 64.5411 15.164H68.2356V6.95018Z" fill="white"/>
<path d="M83.6152 0H89.6395C89.8836 0 90.0944 0.0842448 90.2719 0.252734C90.4495 0.421224 90.5382 0.621305 90.5382 0.852977V9.47752L96.1632 0.72661C96.4517 0.242203 96.9066 0 97.5279 0H102.787C103.031 0 103.242 0.0842448 103.419 0.252734C103.597 0.421224 103.685 0.621305 103.685 0.852977V21.2612C103.685 21.4929 103.597 21.693 103.419 21.8615C103.242 22.03 103.031 22.1142 102.787 22.1142H96.7623C96.5182 22.1142 96.3074 22.03 96.1299 21.8615C95.9524 21.693 95.8637 21.4929 95.8637 21.2612V13.3317L90.2387 21.3876C89.9058 21.872 89.4509 22.1142 88.874 22.1142H83.6152C83.3711 22.1142 83.1603 22.03 82.9827 21.8615C82.8052 21.693 82.7165 21.4929 82.7165 21.2612V0.852977C82.7165 0.621305 82.8052 0.421224 82.9827 0.252734C83.1603 0.0842448 83.3711 0 83.6152 0Z" fill="white"/>
<path d="M107.738 0H127.243C127.487 0 127.698 0.0842448 127.875 0.252734C128.053 0.421224 128.141 0.621305 128.141 0.852977V5.93925C128.141 6.17092 128.053 6.371 127.875 6.53949C127.698 6.70798 127.487 6.79222 127.243 6.79222H121.718V21.2612C121.718 21.4929 121.629 21.693 121.451 21.8615C121.274 22.03 121.063 22.1142 120.819 22.1142H114.162C113.918 22.1142 113.707 22.03 113.53 21.8615C113.352 21.693 113.263 21.4929 113.263 21.2612V6.79222H107.738C107.494 6.79222 107.283 6.70798 107.106 6.53949C106.928 6.371 106.84 6.17092 106.84 5.93925V0.852977C106.84 0.621305 106.928 0.421224 107.106 0.252734C107.283 0.0842448 107.494 0 107.738 0Z" fill="white"/>
<path d="M139.298 15.9538H149.549C149.794 15.9538 150.004 16.0381 150.182 16.2066C150.359 16.3751 150.448 16.5751 150.448 16.8068V21.2612C150.448 21.4929 150.359 21.693 150.182 21.8615C150.004 22.03 149.794 22.1142 149.549 22.1142H132.208C131.964 22.1142 131.754 22.03 131.576 21.8615C131.399 21.693 131.31 21.4929 131.31 21.2612V0.852977C131.31 0.621305 131.399 0.421224 131.576 0.252734C131.754 0.0842448 131.964 0 132.208 0H149.283C149.527 0 149.738 0.0842448 149.916 0.252734C150.093 0.421224 150.182 0.621305 150.182 0.852977V5.30741C150.182 5.53909 150.093 5.73917 149.916 5.90766C149.738 6.07615 149.527 6.16039 149.283 6.16039H139.298V8.15067H148.551C148.795 8.15067 149.006 8.23491 149.183 8.4034C149.361 8.57189 149.45 8.77197 149.45 9.00364V13.1106C149.45 13.3422 149.361 13.5423 149.183 13.7108C149.006 13.8793 148.795 13.9635 148.551 13.9635H139.298V15.9538Z" fill="white"/>
<path d="M155.351 0H165.27C168.465 0 170.961 0.652896 172.759 1.95869C174.556 3.26448 175.455 5.19158 175.455 7.73998C175.455 10.2884 174.556 12.1733 172.759 13.3949C170.984 14.6164 168.487 15.2272 165.27 15.2272H163.106V21.2612C163.106 21.4929 163.018 21.693 162.84 21.8615C162.663 22.03 162.452 22.1142 162.208 22.1142H155.351C155.107 22.1142 154.896 22.03 154.719 21.8615C154.541 21.693 154.453 21.4929 154.453 21.2612V0.852977C154.453 0.621305 154.541 0.421224 154.719 0.252734C154.896 0.0842448 155.107 0 155.351 0ZM162.94 5.87606V9.38275H165.27C165.669 9.38275 166.024 9.24585 166.335 8.97205C166.646 8.6772 166.801 8.26651 166.801 7.73998C166.801 7.21345 166.679 6.77116 166.435 6.41312C166.191 6.05508 165.802 5.87606 165.27 5.87606H162.94Z" fill="white"/>
<path d="M179.177 0H185.201C185.445 0 185.656 0.0842448 185.833 0.252734C186.011 0.421224 186.1 0.621305 186.1 0.852977V9.47752L191.725 0.72661C192.013 0.242203 192.468 0 193.089 0H198.348C198.592 0 198.803 0.0842448 198.981 0.252734C199.158 0.421224 199.247 0.621305 199.247 0.852977V21.2612C199.247 21.4929 199.158 21.693 198.981 21.8615C198.803 22.03 198.592 22.1142 198.348 22.1142H192.324C192.08 22.1142 191.869 22.03 191.691 21.8615C191.514 21.693 191.425 21.4929 191.425 21.2612V13.3317L185.8 21.3876C185.467 21.872 185.012 22.1142 184.436 22.1142H179.177C178.933 22.1142 178.722 22.03 178.544 21.8615C178.367 21.693 178.278 21.4929 178.278 21.2612V0.852977C178.278 0.621305 178.367 0.421224 178.544 0.252734C178.722 0.0842448 178.933 0 179.177 0Z" fill="white"/>
<path d="M206.595 13.8688C204.198 12.4156 203 10.4253 203 7.89793C203 5.34953 203.899 3.40138 205.696 2.05346C207.494 0.684488 209.99 0 213.185 0H223.037C223.281 0 223.492 0.0842448 223.67 0.252734C223.847 0.421224 223.936 0.621305 223.936 0.852977V21.2612C223.936 21.4929 223.847 21.693 223.67 21.8615C223.492 22.03 223.281 22.1142 223.037 22.1142H216.514C216.269 22.1142 216.059 22.03 215.881 21.8615C215.704 21.693 215.615 21.4929 215.615 21.2612V15.2272H214.25L211.388 21.2612C211.121 21.8299 210.644 22.1142 209.957 22.1142H203.133C202.934 22.1142 202.756 22.051 202.601 21.9247C202.468 21.7772 202.401 21.6298 202.401 21.4824C202.401 21.335 202.434 21.1981 202.501 21.0717L206.595 13.8688ZM215.615 9.22479V5.87606H213.185C212.675 5.87606 212.286 6.05508 212.02 6.41312C211.776 6.7501 211.654 7.15026 211.654 7.61361C211.654 8.07695 211.787 8.46659 212.053 8.7825C212.32 9.07736 212.697 9.22479 213.185 9.22479H215.615Z" fill="white"/>
<path d="M17.6129 10.2887L4.45667 0.837891L0 18.4508L17.6129 10.2887Z" fill="#EC8F32"/>
<path d="M17.6129 10.4838L6.87742 10.0645L0 18.4515L17.6129 10.4838Z" fill="#DA6D00"/>
<path d="M17.6133 10.4844L6.43049 10.4662L4.61328 0.839223L17.6133 10.4844Z" fill="#EC8117"/>
</svg>
